<svg width="1131" height="751" viewBox="0 0 1131 751" fill="none" xmlns="http://www.w3.org/2000/svg">
<rect width="1131" height="751" fill="#E6EDEF"/>
<path d="M343 159C343 157.895 343.895 157 345 157H786C787.105 157 788 157.895 788 159V313C788 314.105 787.105 315 786 315H345C343.895 315 343 314.105 343 313V159Z" fill="#111956"/>
<path d="M400.179 207.177C400.179 204.841 401.615 203.673 404.486 203.673C407.357 203.673 408.793 204.841 408.793 207.177V257.547C408.793 259.25 407.893 260.491 406.092 261.27H406.165C405.386 261.611 404.559 261.878 403.683 262.073C402.807 262.268 401.955 262.365 401.128 262.365C400.495 262.365 399.838 262.292 399.157 262.146C398.476 262.049 397.819 261.878 397.186 261.635C396.602 261.343 396.042 260.978 395.507 260.54C395.02 260.053 394.631 259.469 394.339 258.788L378.498 219.295L376.527 219.514V258.934C376.527 261.27 375.067 262.438 372.147 262.438C369.276 262.438 367.84 261.27 367.84 258.934V208.637C367.84 206.642 368.716 205.303 370.468 204.622C372.074 203.989 373.777 203.673 375.578 203.673C376.843 203.673 378.109 203.941 379.374 204.476C380.688 204.963 381.686 205.912 382.367 207.323L398.135 246.889L400.179 246.67V207.177ZM430.033 262C428.524 262 427.089 261.805 425.726 261.416C424.363 260.978 423.049 260.37 421.784 259.591V259.664C419.399 258.155 418.207 255.381 418.207 251.342V247.765C418.207 245.77 418.548 244.042 419.229 242.582C419.959 241.073 420.957 239.881 422.222 239.005H422.149C423.366 238.178 424.655 237.569 426.018 237.18C427.381 236.742 428.695 236.523 429.96 236.523H446.093V229.734C446.093 228.517 445.704 227.422 444.925 226.449C444.195 225.427 442.93 224.916 441.129 224.916H432.588C430.739 224.916 429.449 225.378 428.719 226.303C428.038 227.179 427.697 228.225 427.697 229.442V230.026C427.697 232.557 426.334 233.822 423.609 233.822C420.884 233.822 419.521 232.557 419.521 230.026V229.369C419.521 227.374 419.862 225.695 420.543 224.332C421.273 222.969 422.246 221.826 423.463 220.901H423.39C424.655 220.074 425.969 219.392 427.332 218.857C428.743 218.322 430.082 218.054 431.347 218.054H442.443C443.66 218.054 444.949 218.322 446.312 218.857C447.723 219.392 449.037 220.074 450.254 220.901H450.181C451.446 221.826 452.42 223.042 453.101 224.551C453.782 226.011 454.123 227.714 454.123 229.661V258.934C454.123 261.27 452.785 262.438 450.108 262.438C449.573 262.438 449.062 262.414 448.575 262.365C448.137 262.316 447.723 262.195 447.334 262C446.993 261.757 446.701 261.44 446.458 261.051C446.263 260.613 446.166 260.053 446.166 259.372L446.093 243.385H431.347C430.276 243.385 429.449 243.507 428.865 243.75C428.281 243.993 427.819 244.383 427.478 244.918C427.089 245.745 426.797 246.402 426.602 246.889C426.456 247.327 426.383 247.838 426.383 248.422V251.269C426.383 252.534 426.748 253.508 427.478 254.189C428.257 254.822 429.571 255.138 431.42 255.138H439.596C441.397 255.138 442.297 256.282 442.297 258.569C442.297 259.542 442.078 260.37 441.64 261.051C441.202 261.684 440.521 262 439.596 262H430.033ZM487.291 236.45C488.507 236.45 489.797 236.742 491.16 237.326C492.571 237.861 493.885 238.543 495.102 239.37H495.029C496.294 240.295 497.267 241.487 497.949 242.947C498.63 244.407 498.971 246.159 498.971 248.203V250.393C498.971 254.384 497.657 257.328 495.029 259.226C493.763 260.199 492.474 260.905 491.16 261.343C489.846 261.781 488.556 262 487.291 262H474.881C473.615 262 472.326 261.781 471.012 261.343C469.698 260.905 468.408 260.199 467.143 259.226C464.515 257.377 463.201 254.432 463.201 250.393V249.517C463.201 247.424 464.539 246.402 467.216 246.451C469.941 246.451 471.304 247.473 471.304 249.517V250.32C471.304 251.488 471.669 252.583 472.399 253.605C473.129 254.627 474.418 255.138 476.268 255.138H485.904C487.753 255.138 489.043 254.627 489.773 253.605C490.503 252.583 490.868 251.488 490.868 250.32V248.276C490.868 247.643 490.77 247.035 490.576 246.451C490.43 245.867 490.162 245.356 489.773 244.918C489.383 244.431 488.872 244.042 488.24 243.75C487.607 243.458 486.828 243.312 485.904 243.312H475.246C472.764 243.312 470.16 242.436 467.435 240.684C464.855 239.029 463.566 236.182 463.566 232.143V229.661C463.566 227.714 463.906 226.011 464.588 224.551C465.269 223.042 466.242 221.826 467.508 220.901H467.435C468.651 220.074 469.941 219.392 471.304 218.857C472.666 218.322 473.98 218.054 475.246 218.054H486.926C488.191 218.054 489.481 218.322 490.795 218.857C492.157 219.392 493.471 220.074 494.737 220.901H494.664C495.929 221.826 496.902 223.042 497.584 224.551C498.265 226.011 498.606 227.714 498.606 229.661V230.318C498.606 231.34 498.265 232.094 497.584 232.581C496.902 233.019 495.905 233.262 494.591 233.311C491.914 233.36 490.576 232.362 490.576 230.318V229.734C490.576 228.517 490.186 227.422 489.408 226.449C488.678 225.427 487.412 224.916 485.612 224.916H476.56C474.759 224.916 473.469 225.427 472.691 226.449C471.961 227.422 471.596 228.517 471.596 229.734V231.486C471.596 232.751 471.961 233.895 472.691 234.917C473.469 235.939 474.759 236.45 476.56 236.45H487.291ZM516.362 258.934C516.362 261.27 515.024 262.438 512.347 262.438C509.573 262.438 508.186 261.27 508.186 258.934V228.712C508.186 224.721 509.378 221.947 511.763 220.39C514.148 218.833 516.897 218.054 520.012 218.054H528.334C530.135 218.054 531.035 219.198 531.035 221.485C531.132 223.772 530.232 224.916 528.334 224.916H520.596C518.844 224.916 517.7 225.257 517.165 225.938C516.63 226.619 516.362 227.568 516.362 228.785V258.934ZM548.23 262C546.722 262 545.286 261.805 543.923 261.416C542.561 260.978 541.247 260.37 539.981 259.591V259.664C537.597 258.155 536.404 255.381 536.404 251.342V247.765C536.404 245.77 536.745 244.042 537.426 242.582C538.156 241.073 539.154 239.881 540.419 239.005H540.346C541.563 238.178 542.853 237.569 544.215 237.18C545.578 236.742 546.892 236.523 548.157 236.523H564.29V229.734C564.29 228.517 563.901 227.422 563.122 226.449C562.392 225.427 561.127 224.916 559.326 224.916H550.785C548.936 224.916 547.646 225.378 546.916 226.303C546.235 227.179 545.894 228.225 545.894 229.442V230.026C545.894 232.557 544.532 233.822 541.806 233.822C539.081 233.822 537.718 232.557 537.718 230.026V229.369C537.718 227.374 538.059 225.695 538.74 224.332C539.47 222.969 540.444 221.826 541.66 220.901H541.587C542.853 220.074 544.167 219.392 545.529 218.857C546.941 218.322 548.279 218.054 549.544 218.054H560.64C561.857 218.054 563.147 218.322 564.509 218.857C565.921 219.392 567.235 220.074 568.451 220.901H568.378C569.644 221.826 570.617 223.042 571.298 224.551C571.98 226.011 572.32 227.714 572.32 229.661V258.934C572.32 261.27 570.982 262.438 568.305 262.438C567.77 262.438 567.259 262.414 566.772 262.365C566.334 262.316 565.921 262.195 565.531 262C565.191 261.757 564.899 261.44 564.655 261.051C564.461 260.613 564.363 260.053 564.363 259.372L564.29 243.385H549.544C548.474 243.385 547.646 243.507 547.062 243.75C546.478 243.993 546.016 244.383 545.675 244.918C545.286 245.745 544.994 246.402 544.799 246.889C544.653 247.327 544.58 247.838 544.58 248.422V251.269C544.58 252.534 544.945 253.508 545.675 254.189C546.454 254.822 547.768 255.138 549.617 255.138H557.793C559.594 255.138 560.494 256.282 560.494 258.569C560.494 259.542 560.275 260.37 559.837 261.051C559.399 261.684 558.718 262 557.793 262H548.23ZM591.326 224.916V251.488C591.326 252.753 591.594 253.727 592.129 254.408C592.664 255.089 593.808 255.43 595.56 255.43H597.458C599.356 255.43 600.256 256.549 600.159 258.788C600.159 261.075 599.259 262.219 597.458 262.219H595.049C593.492 262.219 592.032 262.024 590.669 261.635C589.306 261.197 587.992 260.589 586.727 259.81V259.883C584.342 258.326 583.15 255.552 583.15 251.561V224.916H580.303C578.551 224.916 577.626 223.772 577.529 221.485C577.529 219.198 578.454 218.054 580.303 218.054H583.15V210.243C583.15 207.907 584.537 206.739 587.311 206.739C589.988 206.739 591.326 207.907 591.326 210.243V218.054H597.385C599.283 218.054 600.183 219.198 600.086 221.485C600.086 223.772 599.186 224.916 597.385 224.916H591.326Z" fill="#F1F2F8"/>
<path d="M360.945 178.934C360.356 179.517 360.351 180.467 360.934 181.055L370.433 190.648C371.016 191.237 371.966 191.241 372.554 190.659C373.143 190.076 373.148 189.126 372.565 188.537L364.121 180.01L372.648 171.567C373.237 170.984 373.241 170.034 372.659 169.446C372.076 168.857 371.126 168.852 370.537 169.435L360.945 178.934ZM361.993 181.5L764.988 183.48L765.003 180.48L362.007 178.5L361.993 181.5Z" fill="#EDEDED"/>
<path d="M766.062 281.06C766.646 280.473 766.644 279.523 766.056 278.939L756.485 269.419C755.898 268.835 754.948 268.837 754.364 269.424C753.779 270.012 753.782 270.962 754.369 271.546L762.877 280.008L754.415 288.516C753.831 289.104 753.833 290.053 754.42 290.638C755.008 291.222 755.957 291.219 756.542 290.632L766.062 281.06ZM362.004 282.58L765.003 281.503L764.995 278.503L361.996 279.58L362.004 282.58Z" fill="#F7F5F5"/>
<path d="M679.382 192.714C680.687 192.714 681.779 192.879 682.659 193.207C683.539 193.536 684.375 194.019 685.168 194.657L683.761 196.296C683.133 195.764 682.466 195.387 681.76 195.165C681.064 194.933 680.334 194.817 679.571 194.817C678.478 194.817 677.468 195.078 676.54 195.6C675.612 196.112 674.863 196.968 674.293 198.166C673.732 199.355 673.452 200.97 673.452 203.009C673.452 204.991 673.717 206.581 674.249 207.78C674.79 208.979 675.52 209.844 676.439 210.375C677.357 210.907 678.382 211.173 679.513 211.173C680.634 211.173 681.552 211.004 682.268 210.665C682.993 210.327 683.621 209.94 684.153 209.505L685.458 211.158C684.849 211.748 684.056 212.26 683.08 212.695C682.103 213.121 680.905 213.334 679.484 213.334C677.869 213.334 676.405 212.937 675.09 212.144C673.785 211.352 672.751 210.192 671.987 208.664C671.223 207.127 670.842 205.242 670.842 203.009C670.842 200.767 671.228 198.882 672.002 197.355C672.785 195.827 673.824 194.672 675.119 193.889C676.424 193.106 677.845 192.714 679.382 192.714ZM702.44 203.038C702.44 205.049 702.165 206.833 701.614 208.389C701.072 209.936 700.256 211.149 699.163 212.028C698.071 212.899 696.713 213.334 695.089 213.334C693.474 213.334 692.116 212.908 691.014 212.057C689.922 211.197 689.1 209.998 688.549 208.461C688.008 206.924 687.737 205.126 687.737 203.067C687.737 201.047 688.008 199.259 688.549 197.702C689.1 196.146 689.922 194.928 691.014 194.048C692.116 193.159 693.474 192.714 695.089 192.714C696.713 192.714 698.071 193.145 699.163 194.005C700.256 194.865 701.072 196.069 701.614 197.615C702.165 199.162 702.44 200.97 702.44 203.038ZM699.801 203.038C699.801 200.38 699.434 198.345 698.699 196.934C697.974 195.523 696.771 194.817 695.089 194.817C693.407 194.817 692.198 195.527 691.464 196.949C690.739 198.369 690.376 200.409 690.376 203.067C690.376 205.726 690.753 207.751 691.507 209.143C692.261 210.525 693.455 211.216 695.089 211.216C696.771 211.216 697.974 210.52 698.699 209.128C699.434 207.727 699.801 205.697 699.801 203.038ZM710.551 210.83C710.551 210.158 710.789 209.574 711.264 209.078C711.75 208.582 712.344 208.334 713.046 208.334C713.77 208.334 714.369 208.582 714.844 209.078C715.33 209.574 715.573 210.158 715.573 210.83C715.573 211.533 715.33 212.132 714.844 212.628C714.369 213.114 713.77 213.357 713.046 213.357C712.344 213.357 711.75 213.114 711.264 212.628C710.789 212.132 710.551 211.533 710.551 210.83ZM710.551 199.654C710.551 199.179 710.659 198.755 710.876 198.383C711.093 198.011 711.393 197.717 711.775 197.5C712.158 197.273 712.581 197.159 713.046 197.159C713.77 197.159 714.369 197.402 714.844 197.887C715.33 198.373 715.573 198.962 715.573 199.654C715.573 200.336 715.33 200.931 714.844 201.437C714.369 201.933 713.77 202.181 713.046 202.181C712.344 202.181 711.75 201.933 711.264 201.437C710.789 200.931 710.551 200.336 710.551 199.654ZM735.705 202.922C735.705 201.182 735.522 199.79 735.154 198.746C734.787 197.702 734.304 196.919 733.704 196.397C733.105 195.875 732.448 195.527 731.732 195.353C731.027 195.179 730.331 195.092 729.644 195.092H727.295V210.984H729.673C730.389 210.984 731.099 210.873 731.805 210.651C732.52 210.419 733.173 210.013 733.762 209.433C734.352 208.843 734.821 208.026 735.169 206.982C735.526 205.929 735.705 204.575 735.705 202.922ZM738.388 202.922C738.388 204.585 738.209 206.006 737.851 207.185C737.503 208.355 737.025 209.322 736.416 210.085C735.807 210.849 735.111 211.444 734.328 211.869C733.554 212.285 732.738 212.579 731.877 212.753C731.027 212.918 730.19 213 729.369 213H724.787V193.033H729.05C730.219 193.033 731.355 193.164 732.457 193.425C733.569 193.686 734.569 194.169 735.459 194.875C736.358 195.571 737.068 196.567 737.59 197.862C738.122 199.157 738.388 200.844 738.388 202.922ZM745.916 195.092V201.82H753.311V203.894H745.916V210.984H754.993V213H743.393V193.033H754.732L754.442 195.092H745.916Z" fill="#EBF1F2" fill-opacity="0.91"/>
<path d="M604.123 301.112C604.123 301.712 603.97 302.245 603.665 302.71C603.365 303.17 602.93 303.532 602.36 303.797C601.79 304.058 601.095 304.188 600.275 304.188C599.485 304.188 598.78 304.067 598.16 303.827C597.54 303.587 597.013 303.257 596.578 302.837L597.425 301.885C597.785 302.22 598.198 302.485 598.663 302.68C599.128 302.875 599.67 302.972 600.29 302.972C600.695 302.972 601.07 302.907 601.415 302.777C601.765 302.642 602.045 302.442 602.255 302.177C602.47 301.907 602.578 301.57 602.578 301.165C602.578 300.84 602.513 300.565 602.383 300.34C602.258 300.115 602.035 299.915 601.715 299.74C601.395 299.565 600.948 299.392 600.373 299.222C599.673 299.012 599.073 298.78 598.573 298.525C598.078 298.265 597.698 297.947 597.433 297.572C597.173 297.197 597.043 296.737 597.043 296.192C597.043 295.657 597.19 295.187 597.485 294.782C597.78 294.372 598.185 294.052 598.7 293.822C599.22 293.592 599.813 293.477 600.478 293.477C601.203 293.477 601.835 293.582 602.375 293.792C602.92 293.997 603.41 294.295 603.845 294.685L603.02 295.615C602.655 295.29 602.26 295.055 601.835 294.91C601.41 294.76 600.98 294.685 600.545 294.685C600.18 294.685 599.848 294.74 599.548 294.85C599.248 294.955 599.008 295.112 598.828 295.322C598.653 295.532 598.565 295.8 598.565 296.125C598.565 296.41 598.643 296.655 598.798 296.86C598.953 297.06 599.215 297.247 599.585 297.422C599.955 297.592 600.458 297.772 601.093 297.962C601.648 298.122 602.155 298.322 602.615 298.562C603.075 298.802 603.44 299.125 603.71 299.53C603.985 299.93 604.123 300.457 604.123 301.112ZM609.509 295.908C610.264 295.908 610.897 296.077 611.407 296.417C611.922 296.757 612.309 297.237 612.569 297.857C612.834 298.472 612.967 299.2 612.967 300.04C612.967 300.855 612.832 301.575 612.562 302.2C612.297 302.82 611.907 303.307 611.392 303.662C610.877 304.012 610.244 304.188 609.494 304.188C608.744 304.188 608.109 304.017 607.589 303.677C607.074 303.337 606.684 302.857 606.419 302.237C606.154 301.617 606.022 300.89 606.022 300.055C606.022 299.235 606.154 298.515 606.419 297.895C606.689 297.27 607.084 296.782 607.604 296.432C608.124 296.082 608.759 295.908 609.509 295.908ZM609.509 297.055C608.859 297.055 608.369 297.3 608.039 297.79C607.709 298.275 607.544 299.03 607.544 300.055C607.544 301.07 607.707 301.822 608.032 302.312C608.357 302.797 608.844 303.04 609.494 303.04C610.144 303.04 610.632 302.797 610.957 302.312C611.282 301.822 611.444 301.065 611.444 300.04C611.444 299.02 611.282 298.267 610.957 297.782C610.637 297.297 610.154 297.055 609.509 297.055ZM620.153 292.742C620.603 292.742 621.008 292.782 621.368 292.862C621.728 292.937 622.068 293.045 622.388 293.185L621.938 294.22C621.683 294.11 621.411 294.027 621.121 293.972C620.836 293.917 620.543 293.89 620.243 293.89C619.703 293.89 619.301 293.995 619.036 294.205C618.771 294.415 618.638 294.737 618.638 295.172V296.687H621.308L621.151 297.782H618.638V304H617.206V297.782H615.353V296.687H617.206V295.18C617.206 294.685 617.331 294.255 617.581 293.89C617.836 293.525 618.183 293.242 618.623 293.042C619.068 292.842 619.578 292.742 620.153 292.742ZM630.835 303.595C630.555 303.775 630.217 303.917 629.822 304.023C629.427 304.133 629.032 304.188 628.637 304.188C627.757 304.188 627.082 303.957 626.612 303.497C626.147 303.037 625.915 302.44 625.915 301.705V297.175H624.122V296.095H625.915V294.31L627.355 294.137V296.095H630.055L629.89 297.175H627.355V301.69C627.355 302.125 627.465 302.452 627.685 302.672C627.91 302.892 628.282 303.002 628.802 303.002C629.097 303.002 629.367 302.967 629.612 302.898C629.857 302.827 630.085 302.737 630.295 302.627L630.835 303.595ZM639.409 304H637.489L636.522 298.277L635.479 304H633.604L632.202 296.095H633.634L634.564 303.107L635.757 297.1H637.332L638.449 303.107L639.379 296.095H640.752L639.409 304ZM648.231 302.185C648.231 302.5 648.281 302.73 648.381 302.875C648.481 303.015 648.638 303.12 648.853 303.19L648.516 304.18C648.156 304.135 647.843 304.027 647.578 303.857C647.313 303.687 647.116 303.427 646.986 303.077C646.701 303.442 646.341 303.72 645.906 303.91C645.471 304.095 644.998 304.188 644.488 304.188C643.693 304.188 643.066 303.962 642.606 303.512C642.146 303.062 641.916 302.47 641.916 301.735C641.916 300.91 642.236 300.277 642.876 299.837C643.521 299.397 644.446 299.177 645.651 299.177H646.798V298.577C646.798 298.032 646.636 297.645 646.311 297.415C645.991 297.185 645.543 297.07 644.968 297.07C644.708 297.07 644.398 297.102 644.038 297.167C643.678 297.232 643.296 297.335 642.891 297.475L642.523 296.425C643.013 296.24 643.481 296.107 643.926 296.027C644.376 295.947 644.796 295.908 645.186 295.908C646.206 295.908 646.968 296.14 647.473 296.605C647.978 297.065 648.231 297.697 648.231 298.502V302.185ZM644.893 303.107C645.263 303.107 645.618 303.012 645.958 302.822C646.298 302.632 646.578 302.367 646.798 302.027V300.115H645.748C644.913 300.115 644.321 300.257 643.971 300.542C643.621 300.822 643.446 301.207 643.446 301.697C643.446 302.157 643.566 302.507 643.806 302.747C644.046 302.987 644.408 303.107 644.893 303.107ZM651.472 304V302.935H652.672V297.16H651.472V296.095H653.775L654.037 297.947C654.337 297.292 654.705 296.79 655.14 296.44C655.58 296.085 656.15 295.908 656.85 295.908C657.08 295.908 657.282 295.925 657.457 295.96C657.637 295.995 657.82 296.04 658.005 296.095L657.577 297.355C657.412 297.305 657.262 297.27 657.127 297.25C656.992 297.23 656.837 297.22 656.662 297.22C656.067 297.22 655.557 297.435 655.132 297.865C654.707 298.295 654.367 298.927 654.112 299.763V302.935H655.717V304H651.472ZM656.67 298.87V297.055L656.835 296.095H658.005L657.78 298.87H656.67ZM661.554 300.535C661.584 301.115 661.701 301.59 661.906 301.96C662.111 302.325 662.379 302.595 662.709 302.77C663.039 302.94 663.404 303.025 663.804 303.025C664.199 303.025 664.561 302.965 664.891 302.845C665.221 302.725 665.556 302.55 665.896 302.32L666.549 303.227C666.179 303.522 665.751 303.757 665.266 303.932C664.781 304.103 664.279 304.188 663.759 304.188C662.969 304.188 662.296 304.015 661.741 303.67C661.191 303.32 660.771 302.835 660.481 302.215C660.196 301.595 660.054 300.875 660.054 300.055C660.054 299.26 660.196 298.55 660.481 297.925C660.771 297.3 661.179 296.807 661.704 296.447C662.229 296.087 662.854 295.908 663.579 295.908C664.259 295.908 664.844 296.065 665.334 296.38C665.829 296.695 666.209 297.145 666.474 297.73C666.739 298.31 666.871 299.005 666.871 299.815C666.871 299.95 666.869 300.08 666.864 300.205C666.859 300.33 666.851 300.44 666.841 300.535H661.554ZM663.594 297.032C663.034 297.032 662.566 297.232 662.191 297.632C661.821 298.032 661.609 298.65 661.554 299.485H665.484C665.469 298.685 665.294 298.077 664.959 297.662C664.629 297.242 664.174 297.032 663.594 297.032ZM683.712 298.78C683.712 297.91 683.622 297.215 683.442 296.695C683.262 296.17 683.025 295.775 682.73 295.51C682.44 295.245 682.117 295.067 681.762 294.977C681.412 294.887 681.062 294.842 680.712 294.842H679.61V302.837H680.727C681.092 302.837 681.452 302.78 681.807 302.665C682.162 302.55 682.482 302.345 682.767 302.05C683.052 301.755 683.28 301.342 683.45 300.812C683.625 300.282 683.712 299.605 683.712 298.78ZM685.287 298.78C685.287 299.64 685.195 300.372 685.01 300.977C684.83 301.582 684.58 302.082 684.26 302.477C683.945 302.872 683.585 303.182 683.18 303.407C682.775 303.627 682.347 303.782 681.897 303.872C681.447 303.957 681.002 304 680.562 304H678.125V293.665H680.397C681.007 293.665 681.602 293.732 682.182 293.867C682.767 293.997 683.292 294.245 683.757 294.61C684.227 294.975 684.6 295.492 684.875 296.162C685.15 296.832 685.287 297.705 685.287 298.78ZM688.536 300.535C688.566 301.115 688.684 301.59 688.889 301.96C689.094 302.325 689.361 302.595 689.691 302.77C690.021 302.94 690.386 303.025 690.786 303.025C691.181 303.025 691.544 302.965 691.874 302.845C692.204 302.725 692.539 302.55 692.879 302.32L693.531 303.227C693.161 303.522 692.734 303.757 692.249 303.932C691.764 304.103 691.261 304.188 690.741 304.188C689.951 304.188 689.279 304.015 688.724 303.67C688.174 303.32 687.754 302.835 687.464 302.215C687.179 301.595 687.036 300.875 687.036 300.055C687.036 299.26 687.179 298.55 687.464 297.925C687.754 297.3 688.161 296.807 688.686 296.447C689.211 296.087 689.836 295.908 690.561 295.908C691.241 295.908 691.826 296.065 692.316 296.38C692.811 296.695 693.191 297.145 693.456 297.73C693.721 298.31 693.854 299.005 693.854 299.815C693.854 299.95 693.851 300.08 693.846 300.205C693.841 300.33 693.834 300.44 693.824 300.535H688.536ZM690.576 297.032C690.016 297.032 689.549 297.232 689.174 297.632C688.804 298.032 688.591 298.65 688.536 299.485H692.466C692.451 298.685 692.276 298.077 691.941 297.662C691.611 297.242 691.156 297.032 690.576 297.032ZM703.103 296.095L700.268 304H698.588L695.768 296.095H697.298L699.466 302.747L701.626 296.095H703.103ZM706.525 300.535C706.555 301.115 706.672 301.59 706.877 301.96C707.082 302.325 707.35 302.595 707.68 302.77C708.01 302.94 708.375 303.025 708.775 303.025C709.17 303.025 709.532 302.965 709.862 302.845C710.192 302.725 710.527 302.55 710.867 302.32L711.52 303.227C711.15 303.522 710.722 303.757 710.237 303.932C709.752 304.103 709.25 304.188 708.73 304.188C707.94 304.188 707.267 304.015 706.712 303.67C706.162 303.32 705.742 302.835 705.452 302.215C705.167 301.595 705.025 300.875 705.025 300.055C705.025 299.26 705.167 298.55 705.452 297.925C705.742 297.3 706.15 296.807 706.675 296.447C707.2 296.087 707.825 295.908 708.55 295.908C709.23 295.908 709.815 296.065 710.305 296.38C710.8 296.695 711.18 297.145 711.445 297.73C711.71 298.31 711.842 299.005 711.842 299.815C711.842 299.95 711.84 300.08 711.835 300.205C711.83 300.33 711.822 300.44 711.812 300.535H706.525ZM708.565 297.032C708.005 297.032 707.537 297.232 707.162 297.632C706.792 298.032 706.58 298.65 706.525 299.485H710.455C710.44 298.685 710.265 298.077 709.93 297.662C709.6 297.242 709.145 297.032 708.565 297.032ZM717.604 292.915V301.96C717.604 302.34 717.721 302.61 717.956 302.77C718.191 302.925 718.494 303.002 718.864 303.002C719.099 303.002 719.321 302.977 719.531 302.927C719.741 302.877 719.951 302.812 720.161 302.732L720.536 303.76C720.316 303.87 720.041 303.967 719.711 304.053C719.381 304.143 719.009 304.188 718.594 304.188C717.854 304.188 717.264 303.98 716.824 303.565C716.384 303.15 716.164 302.58 716.164 301.855V294.01H713.756V292.915H717.604ZM726.433 295.908C727.188 295.908 727.82 296.077 728.33 296.417C728.845 296.757 729.233 297.237 729.493 297.857C729.758 298.472 729.89 299.2 729.89 300.04C729.89 300.855 729.755 301.575 729.485 302.2C729.22 302.82 728.83 303.307 728.315 303.662C727.8 304.012 727.168 304.188 726.418 304.188C725.668 304.188 725.033 304.017 724.513 303.677C723.998 303.337 723.608 302.857 723.343 302.237C723.078 301.617 722.945 300.89 722.945 300.055C722.945 299.235 723.078 298.515 723.343 297.895C723.613 297.27 724.008 296.782 724.528 296.432C725.048 296.082 725.683 295.908 726.433 295.908ZM726.433 297.055C725.783 297.055 725.293 297.3 724.963 297.79C724.633 298.275 724.468 299.03 724.468 300.055C724.468 301.07 724.63 301.822 724.955 302.312C725.28 302.797 725.768 303.04 726.418 303.04C727.068 303.04 727.555 302.797 727.88 302.312C728.205 301.822 728.368 301.065 728.368 300.04C728.368 299.02 728.205 298.267 727.88 297.782C727.56 297.297 727.078 297.055 726.433 297.055ZM736.02 295.908C736.72 295.908 737.28 296.08 737.7 296.425C738.12 296.765 738.422 297.245 738.607 297.865C738.792 298.48 738.885 299.205 738.885 300.04C738.885 300.84 738.772 301.552 738.547 302.177C738.322 302.802 737.985 303.295 737.535 303.655C737.085 304.01 736.52 304.188 735.84 304.188C734.985 304.188 734.3 303.887 733.785 303.287V307.03L732.345 307.203V296.095H733.582L733.687 297.16C733.982 296.755 734.33 296.445 734.73 296.23C735.13 296.015 735.56 295.908 736.02 295.908ZM735.652 297.04C735.242 297.04 734.88 297.165 734.565 297.415C734.25 297.66 733.99 297.94 733.785 298.255V302.08C733.985 302.375 734.23 302.607 734.52 302.777C734.81 302.942 735.132 303.025 735.487 303.025C736.107 303.025 736.575 302.785 736.89 302.305C737.205 301.82 737.362 301.065 737.362 300.04C737.362 299.355 737.3 298.792 737.175 298.352C737.05 297.907 736.86 297.577 736.605 297.362C736.355 297.147 736.037 297.04 735.652 297.04ZM742.501 300.535C742.531 301.115 742.649 301.59 742.854 301.96C743.059 302.325 743.326 302.595 743.656 302.77C743.986 302.94 744.351 303.025 744.751 303.025C745.146 303.025 745.509 302.965 745.839 302.845C746.169 302.725 746.504 302.55 746.844 302.32L747.496 303.227C747.126 303.522 746.699 303.757 746.214 303.932C745.729 304.103 745.226 304.188 744.706 304.188C743.916 304.188 743.244 304.015 742.689 303.67C742.139 303.32 741.719 302.835 741.429 302.215C741.144 301.595 741.001 300.875 741.001 300.055C741.001 299.26 741.144 298.55 741.429 297.925C741.719 297.3 742.126 296.807 742.651 296.447C743.176 296.087 743.801 295.908 744.526 295.908C745.206 295.908 745.791 296.065 746.281 296.38C746.776 296.695 747.156 297.145 747.421 297.73C747.686 298.31 747.819 299.005 747.819 299.815C747.819 299.95 747.816 300.08 747.811 300.205C747.806 300.33 747.799 300.44 747.789 300.535H742.501ZM744.541 297.032C743.981 297.032 743.514 297.232 743.139 297.632C742.769 298.032 742.556 298.65 742.501 299.485H746.431C746.416 298.685 746.241 298.077 745.906 297.662C745.576 297.242 745.121 297.032 744.541 297.032ZM750.408 304V302.935H751.608V297.16H750.408V296.095H752.71L752.973 297.947C753.273 297.292 753.64 296.79 754.075 296.44C754.515 296.085 755.085 295.908 755.785 295.908C756.015 295.908 756.218 295.925 756.393 295.96C756.573 295.995 756.755 296.04 756.94 296.095L756.513 297.355C756.348 297.305 756.198 297.27 756.063 297.25C755.928 297.23 755.773 297.22 755.598 297.22C755.003 297.22 754.493 297.435 754.068 297.865C753.643 298.295 753.303 298.927 753.048 299.763V302.935H754.653V304H750.408ZM755.605 298.87V297.055L755.77 296.095H756.94L756.715 298.87H755.605Z" fill="#FFFAFA"/>
<path d="M345 158H786V156H345V158ZM787 159V313H789V159H787ZM786 314H345V316H786V314ZM344 313V159H342V313H344ZM345 314C344.448 314 344 313.552 344 313H342C342 314.657 343.343 316 345 316V314ZM787 313C787 313.552 786.552 314 786 314V316C787.657 316 789 314.657 789 313H787ZM786 158C786.552 158 787 158.448 787 159H789C789 157.343 787.657 156 786 156V158ZM345 156C343.343 156 342 157.343 342 159H344C344 158.448 344.448 158 345 158V156Z" fill="white" fill-opacity="0.1"/>
</svg>
